<?xml version="1.0" encoding="utf-8"?>
<svg version="1.1" xmlns="http://www.w3.org/2000/svg" x="0px" y="0px" viewBox="0 0 500 500" style="enable-background:new 0 0 500 500;">
  <g/>
  <g id="Object">
    <g>
      <g>
        <g>
          <path style="fill:#7AA4B8;" d="M262.538,304.007c-0.342-1.016-0.591-2.045-0.774-2.966c-3.53-0.122-3.67-0.258-3.789-0.377 c-0.955-0.955-1.059-4.011-0.671-6.399c0.053-0.328,0.13-0.717,0.232-1.126c-1.581,0.005-3.105,0.012-4.561,0.02 c-0.023,2.715-0.794,6.311-1.009,7.262c-0.051,0.227-0.252,0.389-0.484,0.39c-0.076,0-0.771,0.005-2,0.012 c-0.091,1.039-0.214,2.12-0.382,3.156c2.743,0.022,5.903,0.034,9.531,0.034C259.94,304.012,261.246,304.01,262.538,304.007z"/>
          <path style="fill:#7AA4B8;" d="M53.22,311.458c0.279,0.095,1.823,0.199,4.999,0.285c-0.222-0.72-0.346-1.48-0.38-2.263 c-2.023-0.051-3.852-0.104-5.464-0.16C52.572,310.488,52.889,311.311,53.22,311.458z"/>
          <path style="fill:#7AA4B8;" d="M110.019,310.164c-1.904-0.014-3.797-0.029-5.675-0.044c-0.063,0.552-0.174,1.089-0.331,1.606 c2.716-0.058,4.52-0.125,5.009-0.196C109.509,311.461,109.841,310.992,110.019,310.164z"/>
          <path style="fill:#7AA4B8;" d="M86.329,309.947c-3.625-0.041-7.111-0.085-10.424-0.132c-0.059,0.732-0.203,1.439-0.426,2.113 c1.051,0.002,2.143,0.003,3.28,0.003c0.001,0,0.004,0,0.005,0c2.718,0,5.401-0.006,7.981-0.017 C86.537,311.285,86.394,310.628,86.329,309.947z"/>
          <path style="fill:#628596;" d="M74.906,309.801c-6.072-0.088-11.512-0.187-16.065-0.297c0.22,4.249,3.736,7.642,8.04,7.642 C71.084,317.146,74.542,313.91,74.906,309.801z"/>
          <path style="fill:#628596;" d="M103.335,310.112c-5.511-0.046-10.882-0.097-16-0.154c0.437,4.035,3.862,7.187,8.012,7.187 C99.443,317.146,102.828,314.072,103.335,310.112z"/>
          <path style="fill:#7AA4B8;" d="M217.035,310.265c-3.363,0.028-6.895,0.051-10.525,0.069c-0.076,0.548-0.197,1.081-0.367,1.593 c1.05,0.002,2.142,0.003,3.279,0.003c0.001,0,0.004,0,0.005,0c2.718,0,5.401-0.006,7.981-0.017 C217.233,311.384,217.109,310.833,217.035,310.265z"/>
          <path style="fill:#7AA4B8;" d="M183.884,311.458c0.279,0.095,1.823,0.199,4.999,0.285c-0.134-0.435-0.226-0.888-0.294-1.348 c-1.771,0.003-3.542,0.006-5.306,0.008C183.459,310.975,183.669,311.363,183.884,311.458z"/>
          <path style="fill:#7AA4B8;" d="M240.719,310.026c0.009-0.05,0.013-0.104,0.021-0.156c-1.636,0.057-3.559,0.108-5.719,0.154 c-0.061,0.586-0.179,1.155-0.346,1.702c2.716-0.058,4.52-0.125,5.01-0.196C240.203,311.457,240.55,310.95,240.719,310.026z"/>
          <path style="fill:#628596;" d="M205.498,310.34c-5.17,0.025-10.529,0.042-15.898,0.053c0.628,3.823,3.947,6.753,7.945,6.753 C201.562,317.146,204.892,314.189,205.498,310.34z"/>
          <path style="fill:#628596;" d="M234.008,310.046c-4.503,0.09-9.957,0.158-15.964,0.21c0.57,3.89,3.92,6.889,7.966,6.889 C230.129,317.146,233.531,314.038,234.008,310.046z"/>
          <path style="fill:#628596;" d="M248.472,300.827c-16.635,0.096-98.776,0.553-155.278,0.553c-31.858,0-45.66-0.135-51.699-0.307 c0.546,2.569,1.637,5.905,3.458,6.816c2.396,0.866,70.276,1.518,129.356,1.518c42.979,0.001,70.618-0.336,72.136-0.877 C247.511,307.861,248.151,304.421,248.472,300.827z"/>
          <path style="fill:#7AA4B8;" d="M98.772,239.638c2.283-0.031,4.96-0.046,8.057-0.046c12.15,0,29.303,0.24,47.473,0.57 c-0.363-2.63-0.996-4.941-1.385-5.26c-0.719-0.156-11.552-0.309-24.077-0.309c-16.466,0-28.17,0.251-29.124,0.626 c-0.163,0.07-0.683,0.91-0.901,3.747C98.798,239.189,98.784,239.414,98.772,239.638z"/>
          <path style="fill:#7AA4B8;" d="M168.47,240.432c16.609,0.331,33.211,0.705,46.894,1.014c3.041,0.068,5.924,0.133,8.633,0.194 c-0.358-2.711-1.013-5.127-1.413-5.455c-0.719-0.156-11.552-0.308-24.077-0.308c-16.466,0-28.171,0.251-29.125,0.626 c-0.163,0.07-0.683,0.91-0.9,3.749C168.476,240.312,168.474,240.372,168.47,240.432z"/>
          <path style="fill:#FFFFFF;" d="M89.466,241.083c-36.098,8.33-46.808,39.474-49.146,48.292 c3.343-0.164,12.824-0.337,40.499-0.337c13.011,0,28.085,0.038,43.777,0.097V253.23c0-0.243,0.175-0.451,0.414-0.492 c2.305-0.401,6.779-0.66,11.399-0.66c4.004,0,7.363,0.198,9.218,0.544c0.236,0.044,0.408,0.25,0.408,0.491v36.114 c28.702,0.135,57.308,0.317,77.441,0.45V253.23c0-0.243,0.175-0.451,0.414-0.492c2.304-0.401,6.778-0.66,11.398-0.66 c4.004,0,7.364,0.198,9.219,0.544c0.236,0.044,0.408,0.25,0.408,0.491v36.707c1.57,0.01,2.886,0.019,3.926,0.025 c0.353-18.856,0.412-44.379-0.776-46.759c-1.698,0.056-14.464-0.229-32.726-0.64c-32.771-0.738-82.296-1.854-108.512-1.854 C96.724,240.591,90.882,240.757,89.466,241.083z M96.332,266.615c-0.334,1.553-0.777,2.295-1.438,2.404 c-1.301,0.217-15.66,1.143-25.945,1.143c0,0,0,0-0.001,0c-10.438,0-11.119-0.946-11.41-1.35 c-0.165-0.229-0.208-0.501-0.12-0.765c1.016-3.047,10.619-12.888,14.076-14.425c1.881-0.836,9.693-0.926,12.965-0.926 c0.106,0,10.636,0.008,11.594,0.646C97.2,254.108,97.084,263.116,96.332,266.615z M120.09,267.109 c-0.106,0.764-0.254,1.132-0.529,1.313c-0.939,0.616-9.279,0.634-9.362,0.634c-7.675,0-8.005-0.663-8.163-0.982 c-0.474-0.951-0.711-12.989,0.043-14.026c0.173-0.238,0.633-0.871,9.524-0.871c7.463,0,7.801,0.387,7.929,0.532 C120.126,254.395,120.451,264.507,120.09,267.109z M193.288,267.109c-0.105,0.764-0.254,1.132-0.529,1.313 c-0.939,0.616-9.279,0.634-9.363,0.634c-7.675,0-8.004-0.663-8.163-0.982c-0.473-0.951-0.71-12.989,0.044-14.026 c0.173-0.238,0.633-0.871,9.524-0.871c7.463,0,7.801,0.387,7.929,0.532C193.324,254.395,193.648,264.507,193.288,267.109z M217.688,267.103c-0.107,0.769-0.255,1.139-0.53,1.319c-0.793,0.52-7.028,0.634-9.363,0.634c-7.675,0-8.005-0.663-8.163-0.982 c-0.474-0.95-0.711-12.987,0.043-14.026c0.173-0.238,0.634-0.871,9.525-0.871c7.463,0,7.801,0.387,7.928,0.533 C217.72,254.39,218.046,264.499,217.688,267.103z M168.33,253.71c0.593,0.68,0.918,10.789,0.561,13.393 c-0.106,0.769-0.255,1.139-0.53,1.319c-0.793,0.52-7.028,0.634-9.363,0.634c-7.675,0-8.005-0.663-8.163-0.982 c-0.474-0.951-0.711-12.989,0.043-14.026c0.173-0.238,0.633-0.871,9.525-0.871C167.865,253.177,168.203,253.564,168.33,253.71z"/>
          <path style="fill:#C4E8FA;" d="M125.596,253.655v35.484c6.415,0.025,12.926,0.053,19.439,0.083v-35.688 c-1.863-0.291-4.964-0.457-8.626-0.457C132.107,253.077,127.948,253.302,125.596,253.655z"/>
          <path style="fill:#C4E8FA;" d="M224.477,253.655v36.028c4.234,0.028,8.082,0.054,11.451,0.077 c3.071,0.021,5.746,0.039,7.988,0.053v-36.279c-1.863-0.291-4.964-0.457-8.627-0.457 C230.988,253.077,226.828,253.302,224.477,253.655z"/>
          <path style="fill:#C4E8FA;" d="M111.603,254.177c-4.999,0-8.109,0.244-8.721,0.495c-0.404,1.313-0.386,11.581,0.023,12.89 c0.397,0.185,2.33,0.494,7.293,0.494c4.305,0,8.075-0.237,8.772-0.459c0.596-1.289,0.128-11.532-0.21-13.161 C117.998,254.305,115.154,254.177,111.603,254.177z"/>
          <path style="fill:#45616F;" d="M111.603,253.177c-8.892,0-9.352,0.633-9.524,0.871c-0.754,1.037-0.517,13.075-0.043,14.026 c0.158,0.318,0.488,0.982,8.163,0.982c0.083,0,8.423-0.018,9.362-0.634c0.275-0.181,0.424-0.549,0.529-1.313 c0.36-2.603,0.036-12.715-0.559-13.4C119.404,253.564,119.066,253.177,111.603,253.177z M118.971,267.597 c-0.697,0.222-4.468,0.459-8.772,0.459c-4.963,0-6.896-0.31-7.293-0.494c-0.409-1.309-0.428-11.576-0.023-12.89 c0.611-0.251,3.722-0.495,8.721-0.495c3.551,0,6.395,0.128,7.158,0.259C119.099,256.065,119.567,266.308,118.971,267.597z"/>
          <path style="fill:#C4E8FA;" d="M160.401,254.177c-4.999,0-8.109,0.244-8.721,0.495c-0.404,1.313-0.386,11.581,0.023,12.89 c0.397,0.185,2.33,0.494,7.293,0.494c4.305,0,8.075-0.237,8.773-0.459c0.596-1.291,0.128-11.534-0.211-13.161 C166.796,254.305,163.953,254.177,160.401,254.177z"/>
          <path style="fill:#45616F;" d="M150.876,254.048c-0.754,1.037-0.517,13.075-0.043,14.026c0.158,0.318,0.488,0.982,8.163,0.982 c2.335,0,8.57-0.114,9.363-0.634c0.275-0.181,0.424-0.551,0.53-1.319c0.357-2.604,0.032-12.713-0.561-13.393 c-0.127-0.146-0.465-0.533-7.929-0.533C151.509,253.177,151.049,253.81,150.876,254.048z M167.77,267.597 c-0.698,0.222-4.469,0.459-8.773,0.459c-4.963,0-6.896-0.31-7.293-0.494c-0.409-1.309-0.428-11.576-0.023-12.89 c0.611-0.251,3.722-0.495,8.721-0.495c3.552,0,6.395,0.128,7.158,0.259C167.898,256.063,168.366,266.306,167.77,267.597z"/>
          <path style="fill:#C4E8FA;" d="M184.8,254.177c-4.999,0-8.109,0.244-8.721,0.495c-0.404,1.313-0.386,11.581,0.023,12.89 c0.398,0.185,2.33,0.494,7.292,0.494c4.306,0,8.076-0.237,8.773-0.459c0.596-1.289,0.128-11.532-0.21-13.161 C191.195,254.305,188.351,254.177,184.8,254.177z"/>
          <path style="fill:#45616F;" d="M184.8,253.177c-8.892,0-9.352,0.633-9.524,0.871c-0.754,1.037-0.517,13.075-0.044,14.026 c0.159,0.318,0.488,0.982,8.163,0.982c0.084,0,8.424-0.018,9.363-0.634c0.275-0.181,0.424-0.549,0.529-1.313 c0.36-2.603,0.036-12.715-0.559-13.4C192.601,253.564,192.263,253.177,184.8,253.177z M192.168,267.597 c-0.697,0.222-4.468,0.459-8.773,0.459c-4.962,0-6.894-0.31-7.292-0.494c-0.409-1.309-0.428-11.576-0.023-12.89 c0.611-0.251,3.722-0.495,8.721-0.495c3.551,0,6.395,0.128,7.158,0.259C192.296,256.065,192.764,266.308,192.168,267.597z"/>
          <path style="fill:#C4E8FA;" d="M209.2,254.177c-4.999,0-8.109,0.244-8.722,0.495c-0.403,1.314-0.386,11.58,0.023,12.89 c0.398,0.185,2.33,0.494,7.293,0.494c4.305,0,8.075-0.237,8.773-0.459c0.596-1.291,0.128-11.534-0.211-13.161 C215.594,254.305,212.751,254.177,209.2,254.177z"/>
          <path style="fill:#45616F;" d="M209.2,253.177c-8.892,0-9.353,0.633-9.525,0.871c-0.754,1.039-0.517,13.076-0.043,14.026 c0.158,0.318,0.488,0.982,8.163,0.982c2.335,0,8.57-0.114,9.363-0.634c0.275-0.181,0.424-0.551,0.53-1.319 c0.357-2.604,0.032-12.713-0.561-13.393C217.001,253.564,216.663,253.177,209.2,253.177z M216.568,267.597 c-0.698,0.222-4.469,0.459-8.773,0.459c-4.963,0-6.895-0.31-7.293-0.494c-0.409-1.309-0.427-11.575-0.023-12.89 c0.612-0.251,3.723-0.495,8.722-0.495c3.551,0,6.395,0.128,7.157,0.259C216.696,256.063,217.164,266.306,216.568,267.597z"/>
          <path style="fill:#7AA4B8;" d="M93.194,300.38c60.728,0,151.093-0.527,157.883-0.568c0.661-3.067,1.344-7.88,0.555-8.867 c-0.064-0.08-0.108-0.087-0.152-0.087c-0.989,0-6.66-0.038-15.558-0.098c-32.155-0.216-107.456-0.722-155.103-0.722 c-33.427,0-41.292,0.251-42.005,0.462c-0.796,0.401-1.493,1.873-1.826,3.922c-0.394,2.421-0.157,4.792,0.322,5.454 C38.625,300.11,49.619,300.38,93.194,300.38z"/>
          <path style="fill:#C4E8FA;" d="M84.459,253.697c-6.581,0-11.394,0.321-12.559,0.84c-3.101,1.378-12.42,10.881-13.502,13.737 c0.294,0.227,1.895,0.888,10.55,0.888c10.659,0,24.729-0.953,25.782-1.129c-0.007,0,0.232-0.131,0.5-1.115 c0.981-3.611,0.762-11.701,0.236-12.747C94.695,253.942,90.123,253.697,84.459,253.697z"/>
          <path style="fill:#45616F;" d="M84.459,252.697c-3.272,0-11.084,0.09-12.965,0.926c-3.457,1.537-13.061,11.378-14.076,14.425 c-0.088,0.264-0.045,0.535,0.12,0.765c0.291,0.403,0.973,1.35,11.41,1.35c0.001,0,0.001,0,0.001,0 c10.285,0,24.645-0.926,25.945-1.143c0.66-0.109,1.104-0.852,1.438-2.404c0.752-3.499,0.868-12.507-0.279-13.272 C95.094,252.705,84.565,252.697,84.459,252.697z M95.23,266.918c-0.268,0.984-0.507,1.115-0.5,1.115 c-1.053,0.176-15.123,1.129-25.782,1.129c-8.655,0-10.256-0.661-10.55-0.888c1.082-2.856,10.401-12.359,13.502-13.737 c1.165-0.518,5.977-0.84,12.559-0.84c5.664,0,10.236,0.245,11.008,0.474C95.992,255.217,96.211,263.307,95.23,266.918z"/>
          <path style="fill:#7AA4B8;" d="M307.633,309.947c-3.625-0.041-7.11-0.085-10.424-0.132c-0.059,0.732-0.203,1.439-0.426,2.113 c1.051,0.002,2.143,0.003,3.28,0.003c0.001,0,0.004,0,0.005,0c2.718,0,5.401-0.006,7.981-0.017 C307.841,311.285,307.698,310.628,307.633,309.947z"/>
          <path style="fill:#7AA4B8;" d="M331.324,310.164c-1.904-0.014-3.797-0.029-5.676-0.044c-0.063,0.552-0.174,1.089-0.332,1.606 c2.716-0.058,4.52-0.125,5.01-0.196C330.814,311.461,331.145,310.993,331.324,310.164z"/>
          <path style="fill:#7AA4B8;" d="M274.524,311.458c0.279,0.095,1.823,0.199,4.999,0.285c-0.221-0.72-0.345-1.48-0.379-2.263 c-2.023-0.051-3.852-0.104-5.464-0.16C273.876,310.488,274.193,311.311,274.524,311.458z"/>
          <path style="fill:#628596;" d="M296.209,309.801c-6.072-0.088-11.512-0.187-16.065-0.297c0.22,4.249,3.736,7.642,8.04,7.642 C292.388,317.146,295.845,313.91,296.209,309.801z"/>
          <path style="fill:#628596;" d="M324.639,310.112c-5.511-0.046-10.882-0.097-16-0.154c0.437,4.035,3.862,7.187,8.012,7.187 C320.746,317.146,324.131,314.072,324.639,310.112z"/>
          <path style="fill:#7AA4B8;" d="M462.023,310.026c0.009-0.05,0.013-0.104,0.021-0.156c-1.635,0.057-3.558,0.108-5.717,0.154 c-0.061,0.586-0.179,1.155-0.346,1.702c2.716-0.058,4.52-0.125,5.009-0.196C461.506,311.457,461.854,310.95,462.023,310.026z"/>
          <path style="fill:#7AA4B8;" d="M438.339,310.265c-3.363,0.028-6.895,0.051-10.525,0.069c-0.076,0.548-0.197,1.081-0.367,1.593 c1.05,0.002,2.142,0.003,3.279,0.003c0.001,0,0.004,0,0.005,0c2.718,0,5.401-0.006,7.981-0.017 C438.536,311.384,438.413,310.833,438.339,310.265z"/>
          <path style="fill:#7AA4B8;" d="M405.188,311.458c0.279,0.095,1.823,0.199,4.999,0.285c-0.134-0.435-0.227-0.888-0.294-1.348 c-1.771,0.003-3.542,0.006-5.306,0.008C404.763,310.975,404.973,311.363,405.188,311.458z"/>
          <path style="fill:#628596;" d="M426.802,310.34c-5.17,0.025-10.529,0.042-15.898,0.053c0.628,3.823,3.947,6.753,7.945,6.753 C422.866,317.146,426.196,314.189,426.802,310.34z"/>
          <path style="fill:#628596;" d="M455.313,310.046c-4.503,0.09-9.958,0.158-15.965,0.21c0.57,3.89,3.92,6.889,7.966,6.889 C451.433,317.146,454.835,314.038,455.313,310.046z"/>
          <path style="fill:#628596;" d="M469.776,300.827c-16.635,0.096-98.776,0.553-155.277,0.553c-31.86,0-45.662-0.135-51.7-0.307 c0.546,2.569,1.637,5.905,3.458,6.816c2.396,0.866,70.276,1.518,129.357,1.518c42.979,0.001,70.618-0.336,72.136-0.877 C468.814,307.861,469.454,304.421,469.776,300.827z"/>
          <path style="fill:#7AA4B8;" d="M338.693,236.186c-0.719-0.156-11.552-0.309-24.077-0.309c-16.466,0-28.171,0.251-29.125,0.626 c-0.163,0.07-0.682,0.909-0.9,3.744c-0.078,1.008-0.101,2.02-0.083,2.983c12.666-0.248,31.336-0.433,55.717-0.581 C339.914,239.553,339.142,236.553,338.693,236.186z"/>
          <path style="fill:#7AA4B8;" d="M389.698,242.417c11.463-0.042,23.678-0.082,36.631-0.121c6.875-0.021,13.325-0.04,19.043-0.059 c-0.334-2.945-1.055-5.701-1.485-6.053c-0.719-0.156-11.552-0.308-24.077-0.308c-16.466,0-28.171,0.251-29.125,0.626 c-0.163,0.07-0.683,0.91-0.9,3.749C389.729,240.979,389.702,241.706,389.698,242.417z"/>
          <path style="fill:#FFFFFF;" d="M306.091,289.039v-35.81c0-0.243,0.175-0.451,0.414-0.492c2.304-0.401,6.778-0.66,11.398-0.66 c4.004,0,7.364,0.198,9.219,0.544c0.236,0.044,0.408,0.25,0.408,0.491v35.963c24.721,0.065,52.694,0.207,77.44,0.352V253.23 c0-0.243,0.175-0.451,0.414-0.492c2.305-0.401,6.779-0.66,11.399-0.66c4.004,0,7.364,0.198,9.219,0.544 c0.236,0.044,0.408,0.25,0.408,0.491v36.445c12.208,0.077,22.844,0.148,30.822,0.202c5.832,0.039,10.265,0.069,12.913,0.085 c0.353-18.852,0.412-44.368-0.775-46.758c-1.789,0.083-16.329,0.13-43.04,0.21c-54.943,0.163-157.043,0.466-160.87,1.676 c-5.801,5.368-4.871,35.947-4.495,44.439c2.672-0.174,11.391-0.374,41.156-0.374 C303.424,289.038,304.75,289.039,306.091,289.039z M450.418,253.709c0.595,0.686,0.919,10.798,0.558,13.4 c-0.105,0.764-0.254,1.132-0.529,1.313c-0.939,0.616-9.279,0.634-9.363,0.634c-7.675,0-8.005-0.663-8.163-0.982 c-0.474-0.95-0.711-12.987,0.043-14.026c0.173-0.238,0.634-0.871,9.525-0.871C449.952,253.177,450.29,253.564,450.418,253.709z M381.17,254.048c0.173-0.238,0.633-0.871,9.524-0.871c7.464,0,7.802,0.387,7.929,0.533c0.595,0.684,0.919,10.796,0.56,13.398 c-0.105,0.765-0.254,1.133-0.529,1.314c-0.793,0.52-7.028,0.634-9.363,0.634c-7.675,0-8.005-0.663-8.163-0.982 C380.653,267.123,380.416,255.085,381.17,254.048z M356.77,254.048c0.173-0.238,0.634-0.871,9.525-0.871 c7.463,0,7.801,0.387,7.928,0.533c0.593,0.68,0.918,10.789,0.561,13.393c-0.107,0.769-0.255,1.139-0.53,1.319 c-0.793,0.52-7.028,0.634-9.363,0.634c-7.675,0-8.005-0.663-8.163-0.982C356.254,267.124,356.016,255.087,356.77,254.048z M349.825,253.709c0.595,0.686,0.919,10.798,0.559,13.4c-0.105,0.764-0.254,1.132-0.529,1.313 c-0.94,0.616-9.279,0.634-9.362,0.634c-7.675,0-8.005-0.663-8.163-0.982c-0.474-0.951-0.711-12.989,0.043-14.026 c0.173-0.238,0.633-0.871,9.524-0.871C349.359,253.177,349.697,253.564,349.825,253.709z M301.587,267.103 c-0.106,0.769-0.255,1.139-0.53,1.319c-0.793,0.52-7.028,0.634-9.363,0.634c-7.675,0-8.005-0.663-8.163-0.982 c-0.474-0.95-0.711-12.987,0.043-14.026c0.173-0.238,0.634-0.871,9.525-0.871c7.463,0,7.801,0.387,7.928,0.533 C301.619,254.39,301.944,264.499,301.587,267.103z"/>
          <path style="fill:#C4E8FA;" d="M307.091,253.655v35.385c6.137,0.004,12.661,0.016,19.439,0.033v-35.539 c-1.863-0.291-4.964-0.457-8.627-0.457C313.602,253.077,309.442,253.302,307.091,253.655z"/>
          <path style="fill:#C4E8FA;" d="M405.971,253.655v35.778c6.776,0.04,13.3,0.08,19.44,0.118v-36.017 c-1.863-0.291-4.964-0.457-8.627-0.457C412.482,253.077,408.323,253.302,405.971,253.655z"/>
          <path style="fill:#C4E8FA;" d="M293.098,254.177c-4.999,0-8.109,0.244-8.722,0.495c-0.403,1.314-0.386,11.58,0.023,12.89 c0.397,0.185,2.33,0.494,7.293,0.494c4.305,0,8.075-0.237,8.773-0.459c0.596-1.291,0.128-11.534-0.211-13.161 C299.493,254.305,296.649,254.177,293.098,254.177z"/>
          <path style="fill:#45616F;" d="M293.098,253.177c-8.892,0-9.352,0.633-9.525,0.871c-0.754,1.039-0.517,13.076-0.043,14.026 c0.158,0.318,0.488,0.982,8.163,0.982c2.335,0,8.57-0.114,9.363-0.634c0.275-0.181,0.424-0.551,0.53-1.319 c0.357-2.604,0.032-12.713-0.56-13.393C300.899,253.564,300.561,253.177,293.098,253.177z M300.466,267.597 c-0.698,0.222-4.469,0.459-8.773,0.459c-4.963,0-6.896-0.31-7.293-0.494c-0.409-1.309-0.427-11.575-0.023-12.89 c0.612-0.251,3.723-0.495,8.722-0.495c3.551,0,6.395,0.128,7.157,0.259C300.594,256.063,301.062,266.306,300.466,267.597z"/>
          <path style="fill:#C4E8FA;" d="M341.896,254.177c-4.999,0-8.109,0.244-8.721,0.495c-0.404,1.313-0.386,11.581,0.023,12.89 c0.397,0.185,2.33,0.494,7.293,0.494c4.305,0,8.075-0.237,8.772-0.459c0.596-1.289,0.128-11.532-0.21-13.161 C348.291,254.305,345.447,254.177,341.896,254.177z"/>
          <path style="fill:#45616F;" d="M332.372,254.048c-0.754,1.037-0.517,13.075-0.043,14.026c0.158,0.318,0.488,0.982,8.163,0.982 c0.083,0,8.423-0.018,9.362-0.634c0.275-0.181,0.424-0.549,0.529-1.313c0.36-2.603,0.036-12.715-0.559-13.4 c-0.128-0.145-0.466-0.532-7.929-0.532C333.005,253.177,332.545,253.81,332.372,254.048z M349.264,267.597 c-0.697,0.222-4.468,0.459-8.772,0.459c-4.963,0-6.896-0.31-7.293-0.494c-0.409-1.309-0.428-11.576-0.023-12.89 c0.611-0.251,3.722-0.495,8.721-0.495c3.551,0,6.395,0.128,7.158,0.259C349.392,256.065,349.86,266.308,349.264,267.597z"/>
          <path style="fill:#C4E8FA;" d="M366.296,254.177c-4.999,0-8.109,0.244-8.722,0.495c-0.403,1.314-0.386,11.58,0.023,12.89 c0.397,0.185,2.33,0.494,7.293,0.494c4.305,0,8.075-0.237,8.773-0.459c0.596-1.291,0.128-11.534-0.211-13.161 C372.69,254.305,369.846,254.177,366.296,254.177z"/>
          <path style="fill:#45616F;" d="M364.89,269.056c2.335,0,8.57-0.114,9.363-0.634c0.275-0.181,0.424-0.551,0.53-1.319 c0.357-2.604,0.032-12.713-0.561-13.393c-0.127-0.146-0.465-0.533-7.928-0.533c-8.892,0-9.353,0.633-9.525,0.871 c-0.754,1.039-0.517,13.076-0.043,14.026C356.885,268.393,357.215,269.056,364.89,269.056z M373.664,267.597 c-0.698,0.222-4.469,0.459-8.773,0.459c-4.963,0-6.896-0.31-7.293-0.494c-0.409-1.309-0.427-11.575-0.023-12.89 c0.612-0.251,3.723-0.495,8.722-0.495c3.551,0,6.395,0.128,7.157,0.259C373.792,256.063,374.259,266.306,373.664,267.597z"/>
          <path style="fill:#C4E8FA;" d="M390.694,254.177c-4.999,0-8.109,0.244-8.721,0.495c-0.404,1.313-0.386,11.581,0.024,12.89 c0.397,0.185,2.33,0.494,7.293,0.494c4.305,0,8.075-0.237,8.773-0.459c0.595-1.29,0.127-11.533-0.211-13.161 C397.089,254.305,394.245,254.177,390.694,254.177z"/>
          <path style="fill:#45616F;" d="M389.29,269.056c2.335,0,8.57-0.114,9.363-0.634c0.275-0.181,0.424-0.549,0.529-1.314 c0.359-2.603,0.035-12.715-0.56-13.398c-0.127-0.146-0.465-0.533-7.929-0.533c-8.892,0-9.352,0.633-9.524,0.871 c-0.754,1.037-0.517,13.075-0.043,14.026C381.285,268.393,381.615,269.056,389.29,269.056z M398.063,267.597 c-0.698,0.222-4.469,0.459-8.773,0.459c-4.963,0-6.895-0.31-7.293-0.494c-0.409-1.309-0.428-11.576-0.024-12.89 c0.611-0.251,3.722-0.495,8.721-0.495c3.551,0,6.395,0.128,7.158,0.259C398.19,256.064,398.658,266.307,398.063,267.597z"/>
          <path style="fill:#C4E8FA;" d="M442.489,254.177c-4.999,0-8.109,0.244-8.722,0.495c-0.403,1.314-0.386,11.58,0.023,12.89 c0.397,0.185,2.33,0.494,7.293,0.494c4.306,0,8.076-0.237,8.773-0.459c0.596-1.289,0.128-11.532-0.21-13.161 C448.883,254.305,446.04,254.177,442.489,254.177z"/>
          <path style="fill:#45616F;" d="M432.964,254.048c-0.754,1.039-0.517,13.076-0.043,14.026c0.158,0.318,0.488,0.982,8.163,0.982 c0.084,0,8.424-0.018,9.363-0.634c0.275-0.181,0.424-0.549,0.529-1.313c0.36-2.603,0.036-12.715-0.558-13.4 c-0.128-0.145-0.466-0.532-7.929-0.532C433.597,253.177,433.136,253.81,432.964,254.048z M449.857,267.597 c-0.697,0.222-4.468,0.459-8.773,0.459c-4.963,0-6.896-0.31-7.293-0.494c-0.409-1.309-0.427-11.575-0.023-12.89 c0.612-0.251,3.723-0.495,8.722-0.495c3.551,0,6.395,0.128,7.158,0.259C449.985,256.065,450.453,266.308,449.857,267.597z"/>
          <path style="fill:#7AA4B8;" d="M472.38,299.811c0.661-3.067,1.344-7.88,0.555-8.867c-0.063-0.08-0.108-0.087-0.152-0.087 c-0.988,0-6.659-0.038-15.556-0.098c-32.155-0.216-107.457-0.722-155.104-0.722c-33.427,0-41.292,0.251-42.005,0.462 c-0.797,0.401-1.494,1.874-1.827,3.924c-0.393,2.42-0.155,4.791,0.324,5.452c1.315,0.234,12.309,0.504,55.884,0.504 C375.227,300.38,465.59,299.853,472.38,299.811z"/>
          <path style="fill:#E6F5FC;" d="M72.75,257.345c-0.025-0.023-0.05-0.046-0.076-0.069c-0.376-0.345-0.875-0.243-1.161,0.15 c-0.823,1.135-2.463,1.63-3.163,2.876c-0.256,0.456,0.163,1.028,0.679,0.884c0.742-0.207,1.374-0.824,1.982-1.279 c0.611-0.457,1.464-0.897,1.867-1.558C73.066,258.041,73.019,257.592,72.75,257.345z"/>
          <path style="fill:#E6F5FC;" d="M76.799,257.754c-1.848,1.033-3.54,2.452-5.189,3.777c-1.827,1.467-3.69,2.934-5.073,4.843 c-0.15,0.208,0.13,0.413,0.321,0.321c2.085-1.016,3.871-2.528,5.735-3.891c1.715-1.255,3.545-2.438,5.135-3.847 C78.394,258.365,77.54,257.34,76.799,257.754z"/>
          <path style="fill:#E6F5FC;" d="M108.105,256.601c-0.606,0.192-1.065,0.76-1.53,1.178c-0.469,0.423-1.018,0.935-1.234,1.541 c-0.086,0.24,0.167,0.41,0.375,0.375c0.581-0.098,1.151-0.527,1.608-0.882c0.487-0.378,1.188-0.753,1.478-1.305 C109.042,257.051,108.648,256.429,108.105,256.601z"/>
          <path style="fill:#E6F5FC;" d="M113.542,256.721c-3.032,1.271-5.665,3.855-7.751,6.333c-0.646,0.768,0.424,1.877,1.116,1.116 c2.18-2.396,4.733-3.979,7.292-5.893C114.9,257.752,114.506,256.317,113.542,256.721z"/>
          <path style="fill:#E6F5FC;" d="M133.113,256.359c-0.514,0.416-0.957,0.942-1.419,1.415c-0.448,0.459-0.852,0.836-1.124,1.423 c-0.028,0.06,0.017,0.135,0.088,0.115c0.608-0.17,1.045-0.499,1.556-0.864c0.576-0.412,1.2-0.786,1.728-1.26 C134.513,256.675,133.688,255.893,133.113,256.359z"/>
          <path style="fill:#E6F5FC;" d="M139.737,256.46c-2.238-0.024-4.435,2.08-6.141,3.358c-1.859,1.393-3.7,3.015-5.087,4.885 c-0.173,0.233,0.164,0.554,0.396,0.396c2.065-1.414,3.978-3.04,6.043-4.464c1.642-1.133,4.007-1.921,5.1-3.633 C140.197,256.766,140,256.462,139.737,256.46z"/>
          <path style="fill:#E6F5FC;" d="M158.848,255.672c-1.383,0.433-3.125,1.648-3.782,2.97c-0.2,0.402,0.195,0.768,0.588,0.588 c0.62-0.285,1.162-0.727,1.716-1.12c0.638-0.452,1.355-0.776,1.984-1.237C159.92,256.458,159.608,255.434,158.848,255.672z"/>
          <path style="fill:#E6F5FC;" d="M163.684,256.994c-1.837,0.021-3.699,1.52-5.142,2.548c-1.497,1.066-3.114,2.332-4.072,3.922 c-0.104,0.173,0.099,0.357,0.267,0.267c1.571-0.84,2.978-2.058,4.496-3.006c1.506-0.941,3.624-1.529,4.826-2.824 C164.367,257.57,164.162,256.989,163.684,256.994z"/>
          <path style="fill:#E6F5FC;" d="M183.609,256.721c-0.034-0.117-0.084-0.197-0.167-0.286c-0.195-0.21-0.543-0.247-0.785-0.101 c-1.216,0.732-2.371,1.549-3.475,2.441c-0.509,0.411,0.177,1.302,0.701,0.908c1.092-0.823,2.234-1.566,3.428-2.23 C183.561,257.314,183.69,256.995,183.609,256.721z"/>
          <path style="fill:#E6F5FC;" d="M188.69,256.757c-1.859-0.116-3.776,1.392-5.225,2.41c-1.743,1.225-3.193,2.702-4.526,4.353 c-0.255,0.317,0.142,0.736,0.453,0.453c1.474-1.343,3.09-2.541,4.769-3.615c1.511-0.966,3.644-1.518,4.838-2.854 C189.26,257.212,189.077,256.782,188.69,256.757z"/>
          <path style="fill:#E6F5FC;" d="M205.731,256.712c-0.646,0.218-1.152,0.77-1.704,1.162c-0.581,0.412-1.183,0.801-1.775,1.197 c-0.326,0.218-0.127,0.747,0.271,0.643c0.744-0.196,1.418-0.466,2.104-0.813c0.645-0.327,1.394-0.661,1.81-1.27 C206.743,257.182,206.237,256.541,205.731,256.712z"/>
          <path style="fill:#E6F5FC;" d="M211.402,257.156c-1.189,0.207-2.293,1.22-3.258,1.91c-1.158,0.829-2.265,1.73-3.336,2.668 c-0.873,0.765,0.403,2.03,1.271,1.271c1.071-0.938,2.18-1.82,3.337-2.648c0.955-0.683,2.095-1.185,2.815-2.122 C212.671,257.663,211.948,257.061,211.402,257.156z"/>
          <path style="fill:#E6F5FC;" d="M231.855,256.04c-1.105,0.743-2.069,1.787-3.062,2.674c-0.616,0.55,0.276,1.407,0.895,0.895 c0.981-0.811,2.123-1.575,2.983-2.512C233.169,256.555,232.514,255.596,231.855,256.04z"/>
          <path style="fill:#E6F5FC;" d="M237.467,257.131c-1.913-0.225-4.103,2.086-5.42,3.32c-1.808,1.695-3.238,3.669-4.728,5.63 c-0.203,0.267,0.228,0.575,0.454,0.35c1.556-1.548,3.225-3.008,4.909-4.417c0.95-0.795,1.952-1.53,2.982-2.216 c0.905-0.602,1.778-0.838,2.288-1.822C238.165,257.569,237.893,257.181,237.467,257.131z"/>
          <path style="fill:#E6F5FC;" d="M289.715,256.613c-1.076,0.608-2.086,1.345-3.086,2.069c-0.601,0.436-0.083,1.384,0.592,1.012 c1.079-0.594,2.174-1.193,3.181-1.905C291.107,257.289,290.491,256.175,289.715,256.613z"/>
          <path style="fill:#E6F5FC;" d="M296.581,256.605c-1.993,0.089-3.651,1.662-5.199,2.782c-1.978,1.431-3.923,3.026-5.619,4.781 c-0.275,0.284,0.079,0.763,0.426,0.552c3.636-2.205,7.033-4.72,10.755-6.776C297.559,257.605,297.298,256.573,296.581,256.605z"/>
          <path style="fill:#E6F5FC;" d="M313.847,256.567c-1.144,0.835-2.226,1.797-3.213,2.811c-0.288,0.296,0.075,0.727,0.426,0.552 c1.216-0.606,2.422-1.306,3.52-2.108C315.328,257.276,314.605,256.014,313.847,256.567z"/>
          <path style="fill:#E6F5FC;" d="M319.078,257.361c-1.879,0.414-3.607,1.906-5.085,3.088c-1.771,1.417-3.461,3.165-4.686,5.08 c-0.263,0.411,0.314,0.81,0.65,0.502c1.642-1.501,3.202-3.002,5-4.331c1.526-1.128,3.419-1.888,4.803-3.164 C320.307,258.033,319.73,257.217,319.078,257.361z"/>
          <path style="fill:#E6F5FC;" d="M338.034,255.997c-0.538,0.247-0.912,0.813-1.333,1.217c-0.455,0.436-1.038,0.854-1.347,1.409 c-0.22,0.394,0.138,0.764,0.538,0.7c0.624-0.099,1.201-0.586,1.67-0.988c0.514-0.441,1.167-0.996,1.333-1.676 C339.025,256.127,338.493,255.787,338.034,255.997z"/>
          <path style="fill:#E6F5FC;" d="M342.869,256.323c-1.598,0.408-3.06,1.971-4.298,3.023c-1.546,1.315-3.066,2.72-4.333,4.31 c-0.265,0.332,0.081,0.921,0.492,0.638c1.663-1.145,3.218-2.451,4.818-3.682c1.33-1.023,3.137-1.914,4.053-3.337 C343.919,256.781,343.399,256.188,342.869,256.323z"/>
          <path style="fill:#E6F5FC;" d="M363.518,257.169c0.012,0.002,0.025,0.003,0.037,0.005c-0.062-0.078-0.151-0.125-0.248-0.159 c-0.117-0.054-0.248-0.068-0.39-0.033c-0.078,0.015-0.152,0.042-0.214,0.081c-1.006,0.638-2.232,1.303-2.956,2.269 c-0.239,0.319,0.153,0.672,0.468,0.608c1.132-0.229,2.236-1.053,3.198-1.663C363.86,257.995,363.797,257.466,363.518,257.169z"/>
          <path style="fill:#E6F5FC;" d="M368.953,257.059c-1.74-0.454-3.717,1.387-5.072,2.319c-1.87,1.286-3.643,2.743-5.151,4.442 c-0.374,0.421,0.128,1.189,0.634,0.822c1.779-1.289,3.514-2.629,5.349-3.841c1.41-0.931,3.865-1.655,4.485-3.31 C369.265,257.314,369.126,257.105,368.953,257.059z"/>
          <path style="fill:#E6F5FC;" d="M386.12,255.852c-0.911,0.339-1.941,1.201-2.396,2.063c-0.222,0.42,0.229,0.908,0.659,0.658 c0.389-0.226,0.734-0.515,1.093-0.787c0.409-0.31,0.876-0.534,1.27-0.861C387.233,256.52,386.713,255.632,386.12,255.852z"/>
          <path style="fill:#E6F5FC;" d="M391.402,256.086c-0.916,0.127-1.798,0.882-2.546,1.402c-0.975,0.677-1.95,1.354-2.924,2.031 c-0.958,0.665-0.026,2.25,0.915,1.565c0.961-0.7,1.922-1.4,2.883-2.101c0.787-0.574,1.863-1.191,2.308-2.07 C392.277,256.437,391.888,256.019,391.402,256.086z"/>
          <path style="fill:#E6F5FC;" d="M413.661,257.065c-0.11-0.29-0.242-0.452-0.546-0.546c-0.264-0.082-0.568,0.009-0.76,0.201 c-0.451,0.449-0.95,0.791-1.525,1.063c-0.925,0.438-0.117,1.83,0.805,1.376c0.682-0.336,1.296-0.79,1.826-1.334 C413.641,257.639,413.758,257.322,413.661,257.065z"/>
          <path style="fill:#E6F5FC;" d="M419.655,255.704c-2.217,0.517-4.247,2.512-6.001,3.918c-1.927,1.545-3.936,3.425-5.252,5.528 c-0.233,0.373,0.242,0.883,0.62,0.62c2.021-1.407,3.8-3.188,5.757-4.69c1.747-1.341,4.173-2.493,5.567-4.188 C420.791,256.352,420.385,255.534,419.655,255.704z"/>
          <path style="fill:#E6F5FC;" d="M438.596,257.114c-0.49,0.194-0.925,0.503-1.368,0.787c-0.486,0.311-0.989,0.632-1.418,1.018 c-0.311,0.28,0.013,0.837,0.41,0.705c0.49-0.163,0.943-0.412,1.405-0.641c0.528-0.261,1.082-0.521,1.542-0.89 C439.615,257.733,439.132,256.902,438.596,257.114z"/>
          <path style="fill:#E6F5FC;" d="M442.754,257.273c-1.499,0.164-2.542,1.684-3.569,2.701c-1.321,1.309-3.024,2.672-3.887,4.339 c-0.084,0.163,0.058,0.428,0.265,0.344c1.445-0.583,2.705-1.787,3.898-2.78c1.214-1.01,3.512-2.266,3.843-3.883 C443.371,257.667,443.146,257.23,442.754,257.273z"/>
          <path style="fill:#7BD2F6;" d="M468.9,271.811c-6.724-0.74-13.806-0.191-20.573-0.191h-10.286 c-3.336,0-7.118-0.495-10.372,0.245c-0.309,0.07-0.309,0.533,0,0.603c2.949,0.671,6.321,0.246,9.343,0.246h10.286 c7.102,0,14.543,0.586,21.601-0.191C469.372,272.47,469.372,271.863,468.9,271.811z"/>
          <path style="fill:#7BD2F6;" d="M468.9,275.311c-6.724-0.74-13.806-0.191-20.573-0.191h-10.286 c-3.336,0-7.118-0.495-10.372,0.245c-0.309,0.07-0.309,0.533,0,0.603c2.949,0.671,6.321,0.246,9.343,0.246h10.286 c7.102,0,14.543,0.586,21.601-0.191C469.372,275.97,469.372,275.363,468.9,275.311z"/>
          <path style="fill:#7BD2F6;" d="M304.4,271.811c-6.724-0.74-13.806-0.191-20.573-0.191h-10.286 c-3.336,0-7.118-0.495-10.372,0.245c-0.309,0.07-0.309,0.533,0,0.603c2.949,0.671,6.321,0.246,9.343,0.246h10.286 c7.102,0,14.543,0.586,21.601-0.191C304.872,272.47,304.872,271.863,304.4,271.811z"/>
          <path style="fill:#7BD2F6;" d="M304.4,275.311c-6.724-0.74-13.806-0.191-20.573-0.191h-10.286 c-3.336,0-7.118-0.495-10.372,0.245c-0.309,0.07-0.309,0.533,0,0.603c2.949,0.671,6.321,0.246,9.343,0.246h10.286 c7.102,0,14.543,0.586,21.601-0.191C304.872,275.97,304.872,275.363,304.4,275.311z"/>
          <path style="fill:#7BD2F6;" d="M221.127,271.811c-11.91-0.74-24.454-0.191-36.438-0.191h-18.22 c-5.91,0-12.607-0.495-18.371,0.245c-0.547,0.07-0.547,0.533,0,0.603c5.223,0.671,11.197,0.246,16.549,0.246h18.219 c12.579,0,25.759,0.586,38.26-0.191C221.963,272.47,221.963,271.863,221.127,271.811z"/>
          <path style="fill:#94C7DF;" d="M248.583,292.811c-33.959-0.74-69.726-0.191-103.896-0.191H92.738 c-16.85,0-35.947-0.495-52.381,0.245c-1.56,0.07-1.56,0.533,0,0.603c14.893,0.671,31.925,0.246,47.187,0.246h51.948 c35.867,0,73.446,0.586,109.091-0.191C250.969,293.47,250.969,292.863,248.583,292.811z"/>
          <path style="fill:#94C7DF;" d="M248.583,296.061c-33.959-0.74-69.726-0.191-103.896-0.191H92.738 c-16.85,0-35.947-0.495-52.381,0.245c-1.56,0.07-1.56,0.533,0,0.603c14.893,0.671,31.925,0.246,47.187,0.246h51.948 c35.867,0,73.446,0.586,109.091-0.191C250.969,296.72,250.969,296.113,248.583,296.061z"/>
          <path style="fill:#94C7DF;" d="M469.583,292.811c-33.959-0.74-69.726-0.191-103.896-0.191h-51.949 c-16.85,0-35.947-0.495-52.381,0.245c-1.56,0.07-1.56,0.533,0,0.603c14.893,0.671,31.925,0.246,47.187,0.246h51.948 c35.867,0,73.446,0.586,109.091-0.191C471.969,293.47,471.969,292.863,469.583,292.811z"/>
          <path style="fill:#94C7DF;" d="M469.583,296.061c-33.959-0.74-69.726-0.191-103.896-0.191h-51.949 c-16.85,0-35.947-0.495-52.381,0.245c-1.56,0.07-1.56,0.533,0,0.603c14.893,0.671,31.925,0.246,47.187,0.246h51.948 c35.867,0,73.446,0.586,109.091-0.191C471.969,296.72,471.969,296.113,469.583,296.061z"/>
          <path style="fill:#7BD2F6;" d="M221.127,275.311c-11.91-0.74-24.454-0.191-36.438-0.191h-18.22 c-5.91,0-12.607-0.495-18.371,0.245c-0.547,0.07-0.547,0.533,0,0.603c5.223,0.671,11.197,0.246,16.549,0.246h18.219 c12.579,0,25.759,0.586,38.26-0.191C221.963,275.97,221.963,275.363,221.127,275.311z"/>
          <path style="fill:#7BD2F6;" d="M122.377,271.811c-11.91-0.74-24.454-0.191-36.438-0.191h-18.22 c-5.91,0-12.607-0.495-18.371,0.245c-0.547,0.07-0.547,0.533,0,0.603c5.223,0.671,11.197,0.246,16.549,0.246h18.219 c12.579,0,25.759,0.586,38.26-0.191C123.213,272.47,123.213,271.863,122.377,271.811z"/>
          <path style="fill:#7BD2F6;" d="M122.377,275.311c-11.91-0.74-24.454-0.191-36.438-0.191h-18.22 c-5.91,0-12.607-0.495-18.371,0.245c-0.547,0.07-0.547,0.533,0,0.603c5.223,0.671,11.197,0.246,16.549,0.246h18.219 c12.579,0,25.759,0.586,38.26-0.191C123.213,275.97,123.213,275.363,122.377,275.311z"/>
          <path style="fill:#7BD2F6;" d="M403.286,271.811c-12.057-0.74-24.757-0.191-36.889-0.191h-18.445 c-5.983,0-12.763-0.495-18.598,0.245c-0.554,0.07-0.554,0.533,0,0.603c5.288,0.671,11.335,0.246,16.754,0.246h18.445 c12.735,0,26.078,0.586,38.734-0.191C404.133,272.47,404.133,271.863,403.286,271.811z"/>
          <path style="fill:#7BD2F6;" d="M403.286,275.311c-12.057-0.74-24.757-0.191-36.889-0.191h-18.445 c-5.983,0-12.763-0.495-18.598,0.245c-0.554,0.07-0.554,0.533,0,0.603c5.288,0.671,11.335,0.246,16.754,0.246h18.445 c12.735,0,26.078,0.586,38.734-0.191C404.133,275.97,404.133,275.363,403.286,275.311z"/>
          <path style="fill:#B0D2E2;" d="M144.738,234.197c-0.08-0.491-0.907-0.491-0.987,0c-0.307,1.887-0.143,3.895-0.151,5.803 c-0.003,0.709,1.145,0.903,1.266,0.171c0.014-0.085,0.028-0.17,0.042-0.255c0.014-0.084,0.005-0.175-0.015-0.265 C144.903,237.849,145.026,235.97,144.738,234.197z"/>
          <path style="fill:#B0D2E2;" d="M147.254,234.668c-0.042-0.516-0.848-0.704-0.959-0.13c-0.342,1.779-0.156,3.684,0.086,5.466 c0.09,0.665,1.256,0.508,1.174-0.159C147.343,238.116,147.395,236.397,147.254,234.668z"/>
          <path style="fill:#B0D2E2;" d="M106.93,234.192c-0.194,0.932-0.278,1.89-0.401,2.834c-0.111,0.845-0.384,1.724-0.02,2.518 c0.106,0.232,0.508,0.292,0.669,0.086c0.508-0.651,0.455-1.413,0.547-2.22c0.116-1.017,0.264-2.047,0.295-3.071 C108.038,233.719,107.058,233.575,106.93,234.192z"/>
          <path style="fill:#B0D2E2;" d="M111.034,234.504c-0.078-0.586-0.92-0.807-1.097-0.148c-0.169,0.63-0.191,1.271-0.236,1.919 c-0.024,0.354-0.048,0.708-0.073,1.062c-0.012,0.18,0.044,1.147-0.071,1.249c-0.65,0.573,0.306,1.526,0.95,0.95 c0.503-0.45,0.391-1.226,0.429-1.844C110.999,236.646,111.172,235.545,111.034,234.504z"/>
          <path style="fill:#B0D2E2;" d="M173.842,236.347c0.077-0.597-0.898-0.707-1.036-0.14c-0.175,0.719-0.285,1.442-0.382,2.175 c-0.096,0.728-0.293,1.531-0.26,2.266c0.015,0.336,0.256,0.562,0.586,0.585c0.029,0.002,0.058,0.004,0.087,0.006 c0.215,0.015,0.407-0.163,0.458-0.368c0.001,0.006,0.003,0.011,0.004,0.017C173.576,239.406,173.648,237.846,173.842,236.347z"/>
          <path style="fill:#B0D2E2;" d="M177.366,235.738c-0.067-0.41-0.632-0.326-0.746,0c-0.484,1.391-0.486,3.023-0.595,4.512 c-0.011,0.029-0.036,0.052-0.035,0.084c0.004,0.111,0.006,0.222,0.006,0.333c0.007,0.759,1.105,0.739,1.163,0 C177.286,239.068,177.628,237.329,177.366,235.738z"/>
          <path style="fill:#B0D2E2;" d="M215.185,240.709c-0.248-1.073-0.384-2.111-0.347-3.213c0.024-0.702,0.266-1.301-0.188-1.885 c-0.208-0.268-0.629-0.142-0.786,0.101c-0.01,0.015-0.017,0.032-0.021,0.051c-0.633,1.503-0.311,3.772,0.129,5.281 C214.2,241.824,215.367,241.498,215.185,240.709z"/>
          <path style="fill:#B0D2E2;" d="M217.59,238.603c-0.029-0.967,0.089-2.029-0.402-2.89c-0.087-0.152-0.335-0.163-0.418,0 c-0.389,0.763-0.297,1.585-0.283,2.429c0.019,1.23,0.03,2.461,0.062,3.69c0.019,0.729,1.147,0.731,1.133,0 C217.661,240.756,217.622,239.68,217.59,238.603z"/>
          <path style="fill:#B0D2E2;" d="M290.287,236.061c-0.103-0.282-0.369-0.467-0.676-0.384c-0.04,0.011-0.08,0.022-0.121,0.033 c-0.361,0.098-0.427,0.435-0.296,0.696c-0.035,1.173-0.381,2.434-0.545,3.587c-0.15,1.053-0.305,2.106-0.439,3.162 c-0.002,0.011-0.006,0.022-0.007,0.032c-0.006,0.048-0.012,0.095-0.017,0.143c-0.087,0.726,1.162,0.894,1.277,0.173 c0.223-1.401,0.404-2.81,0.602-4.215C290.204,238.309,290.63,237.003,290.287,236.061z"/>
          <path style="fill:#B0D2E2;" d="M294.314,235.964c-0.048-0.305-0.402-0.43-0.664-0.377c-0.079,0.016-0.134,0.051-0.195,0.102 c-0.485,0.408-0.332,1.685-0.381,2.232c-0.157,1.758-0.44,3.502-0.785,5.233c-0.154,0.773,1.032,1.101,1.183,0.326 C293.917,241.192,294.682,238.291,294.314,235.964z"/>
          <path style="fill:#B0D2E2;" d="M332.411,239.488c-0.053-1.136-0.026-2.326-0.305-3.433c-0.098-0.39-0.747-0.425-0.821,0 c-0.196,1.127-0.084,2.293-0.061,3.433c0.021,1-0.141,2.151,0.371,3.036c0.134,0.232,0.528,0.261,0.654,0 C332.698,241.594,332.458,240.499,332.411,239.488z"/>
          <path style="fill:#B0D2E2;" d="M334.981,241.422c-0.028-0.299,0.028-0.996,0.024-1.115c-0.013-0.46-0.04-0.92-0.066-1.379 c-0.054-0.95-0.069-1.949-0.389-2.852c-0.111-0.312-0.623-0.379-0.701,0c-0.251,1.225-0.077,2.528-0.054,3.771 c0.014,0.749-0.248,1.995,0.361,2.566c0.18,0.169,0.516,0.261,0.733,0.095c0.023-0.018,0.046-0.035,0.07-0.053 C335.338,242.165,335.257,241.65,334.981,241.422z"/>
          <path style="fill:#B0D2E2;" d="M393.865,236.059c-0.297,1.131-0.406,2.309-0.571,3.465c-0.12,0.838-0.452,1.689-0.025,2.455 c0.083,0.149,0.299,0.174,0.417,0.054c0.614-0.624,0.518-1.534,0.624-2.371c0.147-1.159,0.354-2.324,0.368-3.493 C394.684,235.701,393.984,235.606,393.865,236.059z"/>
          <path style="fill:#B0D2E2;" d="M397.002,236.208c-0.183,1.079-0.23,2.178-0.319,3.268c-0.077,0.943-0.393,2.006,0.079,2.861 c0.135,0.244,0.442,0.193,0.587,0c0.515-0.687,0.386-1.581,0.437-2.413c0.073-1.19,0.205-2.393,0.175-3.586 C397.948,235.807,397.097,235.647,397.002,236.208z"/>
          <path style="fill:#B0D2E2;" d="M435.491,239.192c-0.013-1.253,0.109-2.577-0.18-3.802c-0.093-0.396-0.705-0.396-0.799,0 c-0.256,1.085-0.164,2.232-0.175,3.341c-0.01,0.983-0.309,2.187,0.376,2.968c0.096,0.11,0.301,0.11,0.398,0 C435.724,240.998,435.499,240.084,435.491,239.192z"/>
          <path style="fill:#B0D2E2;" d="M438.217,237.504c-0.019-0.785,0.061-1.757-0.844-2.004c-0.392-0.107-0.757,0.337-0.534,0.694 c0.374,0.6,0.111,1.925,0.106,2.609c-0.008,1.01-0.053,2.02-0.081,3.029c-0.023,0.84,1.251,0.829,1.297,0 C438.242,240.393,438.253,238.945,438.217,237.504z"/>
          <path style="fill:#7AA4B8;" d="M66.469,315.667c-1.377-0.304-2.649-0.851-3.641-1.875c-0.859-0.887-1.297-2.05-2.05-3.003 c-0.154-0.194-0.392,0.027-0.366,0.213c0.372,2.583,3.198,6.019,6.056,4.974C66.607,315.925,66.635,315.704,66.469,315.667z"/>
          <path style="fill:#7AA4B8;" d="M69.302,314.306c-0.456-0.076-0.877-0.034-1.336,0.007c-0.612,0.055-1.252-0.016-1.844-0.166 c-0.291-0.074-0.501,0.367-0.211,0.5c1.039,0.475,2.534,0.845,3.482,0.006C69.503,314.555,69.453,314.332,69.302,314.306z"/>
          <path style="fill:#7AA4B8;" d="M95.96,315.658c-1.071-0.289-2.095-0.387-3.089-0.929c-1.189-0.649-1.754-1.739-2.437-2.837 c-0.107-0.172-0.4-0.11-0.393,0.106c0.079,2.487,3.603,5.083,5.963,3.995C96.153,315.924,96.104,315.696,95.96,315.658z"/>
          <path style="fill:#7AA4B8;" d="M99.385,313.362c-1.208,0.374-2.319,1.172-3.64,1.108c-0.251-0.012-0.239,0.356,0,0.383 c1.382,0.158,3.059,0.129,3.825-1.25C99.638,313.482,99.527,313.319,99.385,313.362z"/>
          <path style="fill:#7AA4B8;" d="M197.621,315.517c-1.111-0.435-2.215-0.418-3.291-1.046c-1.142-0.667-1.748-1.711-2.4-2.806 c-0.147-0.246-0.477-0.072-0.436,0.184c0.359,2.242,3.849,5.159,6.164,3.961C197.794,315.74,197.739,315.563,197.621,315.517z"/>
          <path style="fill:#7AA4B8;" d="M200.848,314.584c-0.525-0.245-1.072-0.132-1.635-0.097c-0.616,0.038-1.236,0.052-1.835,0.207 c-0.134,0.034-0.111,0.205,0,0.249c0.587,0.231,1.209,0.265,1.835,0.28c0.56,0.013,1.172,0.035,1.635-0.314 C200.948,314.832,200.99,314.65,200.848,314.584z"/>
          <path style="fill:#7AA4B8;" d="M223.079,313.288c-0.681-0.482-1.348-0.955-2.155-1.202c-0.087-0.027-0.169,0.077-0.119,0.155 c0.408,0.639,0.958,1.122,1.541,1.597c0.466,0.38,1.083,1.156,1.745,0.964c0.105-0.03,0.177-0.125,0.178-0.234 C224.276,313.931,223.536,313.611,223.079,313.288z"/>
          <path style="fill:#7AA4B8;" d="M230.114,313.982c-0.712,0.421-1.402,0.929-2.189,1.203c-0.828,0.288-1.65,0.165-2.498,0.238 c-0.195,0.017-0.255,0.244-0.097,0.357c1.549,1.103,4.385,0.089,5.042-1.599C230.43,314.031,230.237,313.909,230.114,313.982z"/>
          <path style="fill:#7AA4B8;" d="M286.234,315.123c-0.224-0.278-0.512-0.412-0.821-0.587c-0.468-0.265-0.869-0.624-1.244-1.005 c-0.722-0.734-1.108-1.627-1.482-2.567c-0.075-0.188-0.404-0.185-0.384,0.052c0.091,1.051,0.61,1.972,1.253,2.787 c0.533,0.675,1.627,1.72,2.556,1.613C286.267,315.399,286.332,315.246,286.234,315.123z"/>
          <path style="fill:#7AA4B8;" d="M290.614,314.743c-0.634-0.069-1.271,0.015-1.901-0.101c-0.737-0.136-1.308-0.526-1.944-0.884 c-0.16-0.09-0.317,0.086-0.241,0.241c0.669,1.349,3.023,2.113,4.222,1.071C290.889,314.948,290.763,314.759,290.614,314.743z"/>
          <path style="fill:#7AA4B8;" d="M315.825,315.662c-0.867-0.469-1.786-0.801-2.608-1.353c-1.045-0.701-1.791-1.698-2.423-2.766 c-0.127-0.215-0.51-0.071-0.414,0.174c0.795,2.043,3.042,4.282,5.376,4.199C315.887,315.912,315.949,315.729,315.825,315.662z"/>
          <path style="fill:#7AA4B8;" d="M320.353,313.927c-0.631,0.118-1.165,0.492-1.793,0.636c-0.664,0.152-1.322-0.013-1.989-0.018 c-0.128-0.001-0.169,0.146-0.097,0.233c0.941,1.135,3.668,0.933,4.202-0.529C320.75,314.045,320.531,313.894,320.353,313.927z"/>
          <path style="fill:#7AA4B8;" d="M418.275,315.787c-1.008-0.406-2.042-0.806-2.938-1.429c-0.98-0.681-1.57-1.676-2.134-2.694 c-0.186-0.336-0.716-0.107-0.614,0.259c0.637,2.287,3.218,4.459,5.646,4.164C418.408,316.065,418.438,315.853,418.275,315.787z"/>
          <path style="fill:#7AA4B8;" d="M422.827,313.743c-0.589,0.205-1.141,0.486-1.742,0.661c-0.657,0.191-1.338,0.11-2.009,0.109 c-0.163,0-0.214,0.215-0.081,0.298c1.211,0.76,3.262,0.463,4.101-0.719C423.216,313.925,423.017,313.677,422.827,313.743z"/>
          <path style="fill:#7AA4B8;" d="M446.02,315.785c-0.845-0.538-1.766-0.916-2.551-1.551c-0.793-0.642-1.384-1.469-1.8-2.394 c-0.164-0.366-0.8-0.099-0.65,0.274c0.767,1.909,2.642,4.161,4.904,4.028C446.113,316.131,446.184,315.89,446.02,315.785z"/>
          <path style="fill:#7AA4B8;" d="M449.715,314.569c-0.449,0.029-0.855,0.243-1.291,0.343c-0.65,0.149-1.317,0.048-1.903-0.266 c-0.201-0.108-0.432,0.163-0.251,0.325c0.879,0.788,3.086,1.325,3.663-0.116C449.987,314.723,449.852,314.56,449.715,314.569z"/>
          <path style="fill:#6D94A6;" d="M462.038,301.181c-0.342,1.267-0.599,2.557-0.919,3.83c-0.318,1.268-0.81,2.519-1.009,3.81 c-0.092,0.599,0.738,1.078,1.057,0.445c1.171-2.327,1.741-5.351,2.038-7.927C463.283,300.66,462.208,300.552,462.038,301.181z"/>
          <path style="fill:#6D94A6;" d="M466.024,300.727c-1.054,2.689-2.031,5.638-2.674,8.453c-0.15,0.654,0.847,1.152,1.135,0.479 c1.151-2.692,2.031-5.772,2.556-8.651C467.164,300.332,466.271,300.096,466.024,300.727z"/>
          <path style="fill:#6D94A6;" d="M269.258,307.818c-0.797-2.35-1.403-4.941-2.57-7.136c-0.299-0.563-1.045-0.146-0.957,0.403 c0.384,2.401,1.447,4.791,2.21,7.096C268.216,309.014,269.541,308.654,269.258,307.818z"/>
          <path style="fill:#6D94A6;" d="M272.317,307.959c-0.788-2.384-1.353-4.952-2.385-7.24c-0.207-0.458-1.016-0.241-0.961,0.26 c0.272,2.48,1.225,4.988,2.005,7.349C271.256,309.176,272.599,308.813,272.317,307.959z"/>
          <path style="fill:#6D94A6;" d="M242.344,300.856c-0.537,1.576-1.037,3.163-1.502,4.762c-0.232,0.799-0.446,1.603-0.658,2.408 c-0.148,0.259-0.176,0.428-0.14,0.551c-0.07,0.064-0.123,0.144-0.148,0.235c-0.007,0.027-0.014,0.053-0.022,0.08 c-0.119,0.441,0.312,0.943,0.779,0.779c0.938-0.329,0.927-1.669,1.145-2.494c0.532-2.012,1.149-4,1.811-5.972 C243.88,300.4,242.615,300.06,242.344,300.856z"/>
          <path style="fill:#6D94A6;" d="M245.652,300.435c-0.845,1.272-1.261,2.833-1.824,4.246c-0.55,1.378-1.522,2.8-1.529,4.304 c-0.002,0.374,0.44,0.521,0.7,0.29c1.003-0.891,1.38-2.416,1.874-3.645c0.638-1.59,1.427-3.262,1.551-4.985 C246.455,300.205,245.863,300.117,245.652,300.435z"/>
          <path style="fill:#6D94A6;" d="M47.349,308c-0.807-2.446-1.662-5.207-3.052-7.391c-0.269-0.423-0.927-0.152-0.807,0.34 c0.61,2.494,1.778,4.965,2.661,7.381C46.423,309.072,47.603,308.768,47.349,308z"/>
          <path style="fill:#6D94A6;" d="M49.363,304.492c-0.459-1.186-0.862-2.472-1.578-3.531c-0.179-0.264-0.717-0.205-0.67,0.181 c0.156,1.27,0.662,2.469,1.094,3.667c0.428,1.188,0.729,2.562,1.456,3.602c0.255,0.364,0.989,0.289,0.932-0.252 C50.463,306.888,49.823,305.679,49.363,304.492z"/>
          <path style="fill:#45616F;" d="M473.716,290.319c-0.242-0.302-0.565-0.462-0.934-0.462c-0.251,0-0.805-0.003-1.635-0.007 c0.272-14.174,0.67-45.729-1.118-47.559c-0.175-0.179-0.368-0.215-0.578-0.211c-0.54,0.063-9.674,0.109-23.098,0.154 c-0.344-3.245-1.145-6.632-2.082-6.966c-0.867-0.31-16.38-0.392-24.462-0.392c-8.379,0-28.028,0.069-29.517,0.706 c-0.295,0.126-1.192,0.51-1.506,4.592c-0.046,0.602-0.077,1.386-0.08,2.245c-17.655,0.066-33.508,0.138-47.507,0.222 c-0.317-3.364-1.146-7.027-2.123-7.375c-0.867-0.31-16.38-0.392-24.462-0.392c-8.379,0-28.028,0.069-29.517,0.706 c-0.295,0.126-1.191,0.51-1.506,4.587c-0.061,0.792-0.096,1.896-0.075,3.079c-11.923,0.243-18.241,0.546-18.674,0.933 c-6.268,5.608-5.279,36.723-4.879,45.329c-0.158,0.029-0.211,0.055-0.256,0.077c-0.908,0.454-1.49,1.487-1.868,2.548 c-1.513,0.005-3.176,0.011-4.903,0.022c-0.063-0.796-0.22-1.456-0.526-1.84c-0.242-0.302-0.564-0.462-0.934-0.462 c-0.251,0-0.805-0.003-1.635-0.007c0.271-14.174,0.67-45.729-1.118-47.559c-0.175-0.179-0.349-0.215-0.579-0.21 c-0.087,0.01-0.344,0.013-0.762,0.013c-2.595,0-10.769-0.172-22.4-0.432c-0.373-3.06-1.135-6.079-2.017-6.393 c-0.867-0.31-16.38-0.392-24.462-0.392c-8.379,0-28.028,0.069-29.517,0.706c-0.295,0.126-1.192,0.51-1.506,4.592 c-0.006,0.073-0.01,0.158-0.015,0.237c-4.075-0.081-8.147-0.159-12.172-0.233c-0.382-2.991-1.131-5.887-1.994-6.195 c-0.867-0.31-16.38-0.392-24.462-0.392c-8.379,0-28.028,0.069-29.516,0.706c-0.295,0.126-1.192,0.51-1.507,4.589 c-0.017,0.228-0.032,0.49-0.045,0.764c-4.721,0.077-7.543,0.228-8.532,0.456c-37.033,8.546-47.749,40.751-49.972,49.332 c-0.679,0.057-0.785,0.109-0.864,0.148c-1.559,0.779-2.176,3.262-2.405,4.673c-0.389,2.39-0.285,5.445,0.67,6.401 c0.119,0.119,0.258,0.256,3.79,0.377c0.55,2.777,1.742,6.591,4.045,7.743c0.368,0.184,2.821,0.35,6.849,0.5 c0.221,1.462,0.669,2.739,1.461,3.089c0.393,0.174,2.643,0.294,5.785,0.378c1.411,3.174,4.589,5.396,8.28,5.396 c3.622,0,6.745-2.141,8.194-5.219c1.3,0.003,2.541,0.004,3.683,0.004c0.001,0,0.002,0,0.003,0c2.752,0,5.593-0.007,8.383-0.021 c1.446,3.087,4.575,5.235,8.202,5.235c3.698,0,6.88-2.229,8.287-5.412c2.94-0.06,4.972-0.131,5.529-0.212 c0.718-0.103,1.57-0.62,1.877-2.35c22.269,0.161,45.832,0.235,63.268,0.235c0.004,0,0.004,0,0.008,0 c2.609,0,5.262-0.001,7.932-0.004c0.257,0.958,0.651,1.713,1.231,1.969c0.393,0.174,2.642,0.294,5.785,0.378 c1.411,3.174,4.588,5.396,8.279,5.396c3.622,0,6.745-2.141,8.195-5.219c1.299,0.003,2.54,0.004,3.682,0.004 c0.002,0,0.002,0,0.004,0c2.752,0,5.592-0.007,8.382-0.021c1.446,3.087,4.575,5.235,8.202,5.235c3.698,0,6.88-2.229,8.287-5.412 c2.941-0.06,4.973-0.131,5.53-0.212c0.761-0.11,1.67-0.693,1.922-2.688c3.041-0.119,4.906-0.262,5.178-0.432 c0.948-0.592,1.575-2.342,1.991-4.424c3.195,0.025,6.55,0.034,9.711,0.034c0.001,0,0,0,0.001,0c1.409,0,2.842-0.002,4.28-0.007 c0.676,1.66,1.613,3.135,2.898,3.778c0.367,0.184,2.82,0.35,6.849,0.5c0.221,1.462,0.669,2.739,1.461,3.089 c0.393,0.174,2.643,0.294,5.785,0.378c1.411,3.174,4.589,5.396,8.28,5.396c3.622,0,6.745-2.141,8.194-5.219 c1.299,0.003,2.541,0.004,3.683,0.004c0.002,0,0.002,0,0.004,0c2.752,0,5.592-0.007,8.382-0.021 c1.446,3.087,4.575,5.235,8.203,5.235c3.698,0,6.88-2.229,8.287-5.412c2.941-0.06,4.973-0.131,5.53-0.212 c0.717-0.103,1.57-0.62,1.876-2.35c22.269,0.161,45.832,0.235,63.268,0.235c0.004,0,0.004,0,0.008,0 c2.609,0,5.262-0.001,7.932-0.004c0.258,0.958,0.652,1.713,1.232,1.969c0.393,0.174,2.642,0.294,5.785,0.378 c1.411,3.174,4.588,5.396,8.279,5.396c3.622,0,6.745-2.141,8.195-5.219c1.299,0.003,2.54,0.004,3.682,0.004 c0.002,0,0.002,0,0.004,0c2.752,0,5.592-0.007,8.382-0.021c1.446,3.087,4.575,5.235,8.203,5.235 c3.698,0,6.881-2.229,8.288-5.412c2.94-0.06,4.972-0.131,5.529-0.212c0.761-0.11,1.67-0.693,1.922-2.688 c3.041-0.119,4.906-0.262,5.178-0.432c1.55-0.968,2.243-5.026,2.553-8.58c1.229-0.007,1.924-0.011,2-0.012 c0.232-0.001,0.434-0.163,0.484-0.39C473.584,299.032,475.079,292.024,473.716,290.319z M395.613,309.407 c-59.08,0-126.961-0.652-129.357-1.518c-1.821-0.911-2.912-4.247-3.458-6.816c6.038,0.172,19.84,0.307,51.7,0.307 c56.502,0,138.642-0.457,155.277-0.553c-0.322,3.594-0.962,7.033-2.027,7.703C466.231,309.071,438.591,309.408,395.613,309.407z M447.314,317.146c-4.046,0-7.396-2.999-7.966-6.889c6.008-0.052,11.462-0.121,15.965-0.21 C454.835,314.038,451.433,317.146,447.314,317.146z M430.725,311.931c-1.137,0-2.229-0.001-3.279-0.003 c0.17-0.512,0.291-1.045,0.367-1.593c3.63-0.019,7.163-0.042,10.525-0.069c0.074,0.567,0.198,1.118,0.372,1.648 c-2.58,0.011-5.263,0.017-7.981,0.017C430.729,311.931,430.726,311.931,430.725,311.931z M410.904,310.393 c5.369-0.01,10.729-0.027,15.898-0.053c-0.606,3.849-3.936,6.805-7.954,6.805C414.85,317.146,411.532,314.216,410.904,310.393z M409.893,310.395c0.067,0.46,0.16,0.913,0.294,1.348c-3.176-0.086-4.72-0.189-4.999-0.285 c-0.216-0.095-0.425-0.483-0.601-1.056C406.352,310.401,408.122,310.398,409.893,310.395z M456.327,310.025 c2.159-0.046,4.082-0.097,5.717-0.154c-0.008,0.051-0.012,0.106-0.021,0.156c-0.169,0.924-0.517,1.431-1.034,1.505 c-0.489,0.07-2.293,0.137-5.009,0.196C456.148,311.179,456.266,310.611,456.327,310.025z M316.651,317.146 c-4.15,0-7.575-3.152-8.012-7.187c5.118,0.057,10.489,0.108,16,0.154C324.131,314.072,320.746,317.146,316.651,317.146z M300.062,311.931c-1.137,0-2.229-0.001-3.28-0.003c0.223-0.673,0.368-1.38,0.426-2.113c3.314,0.047,6.799,0.091,10.424,0.132 c0.065,0.681,0.207,1.337,0.415,1.966c-2.58,0.011-5.263,0.017-7.981,0.017C300.066,311.931,300.063,311.931,300.062,311.931z M288.185,317.146c-4.304,0-7.82-3.392-8.04-7.642c4.553,0.11,9.993,0.208,16.065,0.297 C295.845,313.91,292.388,317.146,288.185,317.146z M279.144,309.48c0.034,0.783,0.158,1.543,0.379,2.263 c-3.176-0.086-4.72-0.189-4.999-0.285c-0.332-0.147-0.648-0.97-0.844-2.138C275.292,309.376,277.121,309.429,279.144,309.48z M325.648,310.121c1.878,0.015,3.772,0.03,5.676,0.044c-0.178,0.828-0.51,1.297-0.998,1.367c-0.489,0.07-2.293,0.137-5.01,0.196 C325.474,311.21,325.585,310.672,325.648,310.121z M174.309,309.407c-59.08,0-126.961-0.652-129.356-1.518 c-1.821-0.911-2.912-4.247-3.458-6.816c6.039,0.172,19.841,0.307,51.699,0.307c56.503,0,138.643-0.457,155.278-0.553 c-0.322,3.594-0.962,7.033-2.027,7.703C244.927,309.071,217.288,309.408,174.309,309.407z M226.01,317.146 c-4.046,0-7.396-2.999-7.966-6.889c6.007-0.052,11.461-0.121,15.964-0.21C233.531,314.038,230.129,317.146,226.01,317.146z M209.421,311.931c-1.137,0-2.229-0.001-3.279-0.003c0.17-0.512,0.291-1.045,0.367-1.593c3.63-0.019,7.163-0.042,10.525-0.069 c0.074,0.567,0.198,1.118,0.372,1.648c-2.58,0.011-5.263,0.017-7.981,0.017C209.425,311.931,209.422,311.931,209.421,311.931z M189.6,310.393c5.369-0.01,10.729-0.027,15.898-0.053c-0.606,3.849-3.936,6.805-7.954,6.805 C193.546,317.146,190.228,314.216,189.6,310.393z M188.59,310.395c0.067,0.46,0.16,0.913,0.294,1.348 c-3.176-0.086-4.72-0.189-4.999-0.285c-0.216-0.095-0.425-0.483-0.6-1.056C185.048,310.401,186.818,310.398,188.59,310.395z M235.022,310.025c2.16-0.046,4.083-0.097,5.719-0.154c-0.008,0.051-0.012,0.106-0.021,0.156 c-0.169,0.924-0.517,1.431-1.034,1.505c-0.489,0.07-2.293,0.137-5.01,0.196C234.843,311.179,234.961,310.611,235.022,310.025z M95.347,317.146c-4.15,0-7.575-3.152-8.012-7.187c5.118,0.057,10.489,0.108,16,0.154 C102.828,314.072,99.443,317.146,95.347,317.146z M78.758,311.931c-1.137,0-2.229-0.001-3.28-0.003 c0.223-0.673,0.368-1.38,0.426-2.113c3.314,0.047,6.799,0.091,10.424,0.132c0.065,0.681,0.207,1.337,0.415,1.966 c-2.58,0.011-5.262,0.017-7.981,0.017C78.762,311.931,78.759,311.931,78.758,311.931z M66.881,317.146 c-4.304,0-7.82-3.392-8.04-7.642c4.553,0.11,9.993,0.208,16.065,0.297C74.542,313.91,71.084,317.146,66.881,317.146z M57.84,309.48c0.034,0.783,0.158,1.543,0.38,2.263c-3.176-0.086-4.72-0.189-4.999-0.285c-0.332-0.147-0.648-0.97-0.844-2.138 C53.988,309.376,55.817,309.429,57.84,309.48z M104.344,310.121c1.878,0.015,3.771,0.03,5.675,0.044 c-0.178,0.827-0.51,1.297-0.998,1.367c-0.489,0.07-2.292,0.137-5.009,0.196C104.17,311.21,104.281,310.672,104.344,310.121z M36.988,294.422c0.333-2.049,1.03-3.521,1.826-3.922c0.713-0.211,8.578-0.462,42.005-0.462 c47.646,0,122.947,0.506,155.103,0.722c8.897,0.06,14.568,0.098,15.558,0.098c0.044,0,0.089,0.007,0.152,0.087 c0.789,0.987,0.106,5.8-0.555,8.867c-6.79,0.041-97.154,0.568-157.883,0.568c-43.575,0-54.569-0.27-55.884-0.504 C36.831,299.214,36.594,296.843,36.988,294.422z M99.716,235.219c0.954-0.375,12.658-0.626,29.124-0.626 c12.525,0,23.358,0.152,24.077,0.309c0.39,0.319,1.022,2.63,1.385,5.26c-18.17-0.331-35.323-0.57-47.473-0.57 c-3.097,0-5.774,0.016-8.057,0.046c0.012-0.224,0.025-0.448,0.043-0.672C99.034,236.128,99.553,235.289,99.716,235.219z M106.83,240.591c26.216,0,75.741,1.116,108.512,1.854c18.262,0.412,31.027,0.696,32.726,0.64 c1.188,2.38,1.129,27.903,0.776,46.759c-1.04-0.006-2.356-0.015-3.926-0.025v-36.707c0-0.241-0.172-0.447-0.408-0.491 c-1.855-0.346-5.215-0.544-9.219-0.544c-4.62,0-9.095,0.259-11.398,0.66c-0.239,0.041-0.414,0.249-0.414,0.492v36.447 c-20.134-0.133-48.739-0.314-77.441-0.45v-36.114c0-0.241-0.172-0.447-0.408-0.491c-1.855-0.346-5.214-0.544-9.218-0.544 c-4.62,0-9.095,0.259-11.399,0.66c-0.239,0.041-0.414,0.249-0.414,0.492v35.906c-15.693-0.059-30.767-0.097-43.777-0.097 c-27.675,0-37.155,0.173-40.499,0.337c2.339-8.818,13.048-39.961,49.146-48.292C90.882,240.757,96.724,240.591,106.83,240.591z M169.381,236.503c0.954-0.375,12.659-0.626,29.125-0.626c12.525,0,23.358,0.152,24.077,0.308 c0.4,0.328,1.055,2.744,1.413,5.455c-2.709-0.061-5.591-0.126-8.633-0.194c-13.683-0.308-30.286-0.682-46.894-1.014 c0.004-0.06,0.007-0.12,0.011-0.18C168.699,237.413,169.218,236.573,169.381,236.503z M145.036,289.222 c-6.513-0.03-13.025-0.058-19.439-0.083v-35.484c2.352-0.354,6.511-0.578,10.813-0.578c3.662,0,6.763,0.166,8.626,0.457V289.222 z M243.917,289.813c-2.242-0.015-4.918-0.033-7.988-0.053c-3.369-0.023-7.217-0.048-11.451-0.077v-36.028 c2.351-0.354,6.511-0.578,10.813-0.578c3.663,0,6.764,0.166,8.627,0.457V289.813z M249.482,300.821 c1.229-0.007,1.924-0.011,2-0.012c0.232-0.001,0.434-0.163,0.484-0.39c0.215-0.952,0.986-4.547,1.009-7.262 c1.457-0.009,2.98-0.015,4.561-0.02c-0.102,0.409-0.179,0.798-0.232,1.126c-0.388,2.389-0.284,5.444,0.671,6.399 c0.119,0.119,0.258,0.256,3.789,0.377c0.183,0.921,0.432,1.951,0.774,2.966c-1.292,0.003-2.598,0.005-3.908,0.005 c-3.628,0-6.788-0.013-9.531-0.034C249.268,302.942,249.391,301.861,249.482,300.821z M314.499,300.38 c-43.575,0-54.569-0.27-55.884-0.504c-0.479-0.661-0.717-3.032-0.324-5.452c0.333-2.05,1.03-3.522,1.827-3.924 c0.713-0.211,8.578-0.462,42.005-0.462c47.647,0,122.949,0.506,155.104,0.722c8.897,0.06,14.567,0.098,15.556,0.098 c0.044,0,0.089,0.007,0.152,0.087c0.789,0.987,0.107,5.8-0.555,8.867C465.59,299.853,375.227,300.38,314.499,300.38z M265.462,244.973c3.827-1.21,105.927-1.513,160.87-1.676c26.711-0.08,41.251-0.127,43.04-0.21 c1.187,2.389,1.128,27.905,0.775,46.758c-2.648-0.016-7.081-0.046-12.913-0.085c-7.978-0.054-18.614-0.125-30.822-0.202v-36.445 c0-0.241-0.172-0.447-0.408-0.491c-1.854-0.346-5.215-0.544-9.219-0.544c-4.62,0-9.095,0.259-11.399,0.66 c-0.239,0.041-0.414,0.249-0.414,0.492v36.198c-24.746-0.145-52.719-0.286-77.44-0.352v-35.963c0-0.241-0.172-0.447-0.408-0.491 c-1.854-0.346-5.215-0.544-9.219-0.544c-4.62,0-9.095,0.259-11.398,0.66c-0.239,0.041-0.414,0.249-0.414,0.492v35.81 c-1.341-0.001-2.667-0.001-3.969-0.001c-29.765,0-38.484,0.2-41.156,0.374C260.59,280.92,259.661,250.341,265.462,244.973z M284.59,240.248c0.219-2.836,0.737-3.674,0.9-3.744c0.954-0.375,12.659-0.626,29.125-0.626c12.525,0,23.358,0.152,24.077,0.309 c0.449,0.368,1.221,3.368,1.531,6.464c-24.381,0.148-43.051,0.333-55.717,0.581C284.49,242.267,284.513,241.255,284.59,240.248z M390.685,236.503c0.954-0.375,12.659-0.626,29.125-0.626c12.525,0,23.358,0.152,24.077,0.308 c0.429,0.352,1.151,3.108,1.485,6.053c-5.718,0.019-12.168,0.038-19.043,0.059c-12.953,0.038-25.168,0.078-36.631,0.121 c0.005-0.711,0.031-1.439,0.087-2.165C390.003,237.413,390.522,236.573,390.685,236.503z M326.531,289.073 c-6.779-0.017-13.303-0.029-19.439-0.033v-35.385c2.351-0.354,6.511-0.578,10.813-0.578c3.663,0,6.764,0.166,8.627,0.457 V289.073z M425.412,289.552c-6.14-0.039-12.664-0.079-19.44-0.118v-35.778c2.352-0.354,6.511-0.578,10.813-0.578 c3.663,0,6.764,0.166,8.627,0.457V289.552z"/>
        </g>
        <g>
          <g>
            <path style="fill:#45616F;" d="M481.245,318.542h-453c-0.276,0-0.5-0.224-0.5-0.5s0.224-0.5,0.5-0.5h453 c0.276,0,0.5,0.224,0.5,0.5S481.521,318.542,481.245,318.542z"/>
          </g>
          <g>
            <path style="fill:#45616F;" d="M481.245,323.208h-453c-0.276,0-0.5-0.224-0.5-0.5s0.224-0.5,0.5-0.5h453 c0.276,0,0.5,0.224,0.5,0.5S481.521,323.208,481.245,323.208z"/>
          </g>
        </g>
      </g>
    </g>
  </g>
</svg>